<svg xmlns="http://www.w3.org/2000/svg" viewBox="0 0 1100 1020" font-family="'Segoe UI', 'Helvetica Neue', Arial, sans-serif">
  <defs>
    <linearGradient id="bgGrad" x1="0" y1="0" x2="1" y2="1">
      <stop offset="0%" stop-color="#0f1117"/>
      <stop offset="100%" stop-color="#161925"/>
    </linearGradient>
    <linearGradient id="externalGrad" x1="0" y1="0" x2="0" y2="1">
      <stop offset="0%" stop-color="#2d1f4e"/>
      <stop offset="100%" stop-color="#1a1333"/>
    </linearGradient>
    <linearGradient id="operatorGrad" x1="0" y1="0" x2="0" y2="1">
      <stop offset="0%" stop-color="#1a2744"/>
      <stop offset="100%" stop-color="#111d33"/>
    </linearGradient>
    <linearGradient id="k8sGrad" x1="0" y1="0" x2="0" y2="1">
      <stop offset="0%" stop-color="#1a3328"/>
      <stop offset="100%" stop-color="#112218"/>
    </linearGradient>
    <linearGradient id="chatBadge" x1="0" y1="0" x2="1" y2="1">
      <stop offset="0%" stop-color="#a855f7"/>
      <stop offset="100%" stop-color="#7c3aed"/>
    </linearGradient>
    <linearGradient id="eventBadge" x1="0" y1="0" x2="1" y2="1">
      <stop offset="0%" stop-color="#f97316"/>
      <stop offset="100%" stop-color="#ea580c"/>
    </linearGradient>
    <linearGradient id="operatorBadge" x1="0" y1="0" x2="1" y2="1">
      <stop offset="0%" stop-color="#3b82f6"/>
      <stop offset="100%" stop-color="#2563eb"/>
    </linearGradient>
    <linearGradient id="agentBadge" x1="0" y1="0" x2="1" y2="1">
      <stop offset="0%" stop-color="#10b981"/>
      <stop offset="100%" stop-color="#059669"/>
    </linearGradient>
    <linearGradient id="mcpBadge" x1="0" y1="0" x2="1" y2="1">
      <stop offset="0%" stop-color="#06b6d4"/>
      <stop offset="100%" stop-color="#0891b2"/>
    </linearGradient>
    <linearGradient id="memBadge" x1="0" y1="0" x2="1" y2="1">
      <stop offset="0%" stop-color="#f59e0b"/>
      <stop offset="100%" stop-color="#d97706"/>
    </linearGradient>
    <linearGradient id="consoleBadge" x1="0" y1="0" x2="1" y2="1">
      <stop offset="0%" stop-color="#ec4899"/>
      <stop offset="100%" stop-color="#db2777"/>
    </linearGradient>
    <linearGradient id="k8sApiBadge" x1="0" y1="0" x2="1" y2="1">
      <stop offset="0%" stop-color="#8b5cf6"/>
      <stop offset="100%" stop-color="#6d28d9"/>
    </linearGradient>

    <filter id="glow" x="-20%" y="-20%" width="140%" height="140%">
      <feGaussianBlur stdDeviation="3" result="blur"/>
      <feMerge><feMergeNode in="blur"/><feMergeNode in="SourceGraphic"/></feMerge>
    </filter>
    <filter id="softGlow" x="-10%" y="-10%" width="120%" height="120%">
      <feGaussianBlur stdDeviation="2" result="blur"/>
      <feMerge><feMergeNode in="blur"/><feMergeNode in="SourceGraphic"/></feMerge>
    </filter>
    <filter id="shadow" x="-5%" y="-5%" width="110%" height="115%">
      <feDropShadow dx="0" dy="2" stdDeviation="4" flood-color="#000" flood-opacity="0.4"/>
    </filter>

    <marker id="arrowPurple" markerWidth="8" markerHeight="6" refX="8" refY="3" orient="auto">
      <path d="M0,0 L8,3 L0,6 Z" fill="#a855f7"/>
    </marker>
    <marker id="arrowOrange" markerWidth="8" markerHeight="6" refX="8" refY="3" orient="auto">
      <path d="M0,0 L8,3 L0,6 Z" fill="#f97316"/>
    </marker>
    <marker id="arrowBlueM" markerWidth="8" markerHeight="6" refX="8" refY="3" orient="auto">
      <path d="M0,0 L8,3 L0,6 Z" fill="#3b82f6"/>
    </marker>
    <marker id="arrowGreenM" markerWidth="8" markerHeight="6" refX="8" refY="3" orient="auto">
      <path d="M0,0 L8,3 L0,6 Z" fill="#10b981"/>
    </marker>
    <marker id="arrowCyanM" markerWidth="8" markerHeight="6" refX="8" refY="3" orient="auto">
      <path d="M0,0 L8,3 L0,6 Z" fill="#06b6d4"/>
    </marker>
    <marker id="arrowAmber" markerWidth="8" markerHeight="6" refX="8" refY="3" orient="auto">
      <path d="M0,0 L8,3 L0,6 Z" fill="#f59e0b"/>
    </marker>
    <marker id="arrowGray" markerWidth="8" markerHeight="6" refX="8" refY="3" orient="auto">
      <path d="M0,0 L8,3 L0,6 Z" fill="#94a3b8"/>
    </marker>
    <marker id="arrowRose" markerWidth="8" markerHeight="6" refX="8" refY="3" orient="auto">
      <path d="M0,0 L8,3 L0,6 Z" fill="#f472b6"/>
    </marker>
    <marker id="arrowViolet" markerWidth="8" markerHeight="6" refX="8" refY="3" orient="auto">
      <path d="M0,0 L8,3 L0,6 Z" fill="#a78bfa"/>
    </marker>

    <pattern id="grid" width="40" height="40" patternUnits="userSpaceOnUse">
      <path d="M 40 0 L 0 0 0 40" fill="none" stroke="#1e293b" stroke-width="0.5" opacity="0.3"/>
    </pattern>
  </defs>

  <!-- Background -->
  <rect width="1100" height="1020" fill="url(#bgGrad)"/>
  <rect width="1100" height="1020" fill="url(#grid)"/>

  <!-- Title -->
  <text x="550" y="38" text-anchor="middle" fill="#e2e8f0" font-size="20" font-weight="700" letter-spacing="2">AGENTOPS-CORE ARCHITECTURE</text>
  <line x1="390" y1="48" x2="710" y2="48" stroke="#334155" stroke-width="1"/>

  <!-- ==================== LANE: EXTERNAL (left) ==================== -->
  <rect x="20" y="65" width="230" height="940" rx="12" fill="url(#externalGrad)" stroke="#7c3aed" stroke-width="0.6" opacity="0.85" filter="url(#shadow)"/>
  <text x="135" y="92" text-anchor="middle" fill="#c4b5fd" font-size="13" font-weight="600" letter-spacing="1.5">EXTERNAL</text>

  <!-- Row 1: Console — y=110 -->
  <rect x="38" y="110" width="194" height="78" rx="8" fill="#2d1040" stroke="#ec4899" stroke-width="0.8" opacity="0.8"/>
  <rect x="38" y="110" width="194" height="22" rx="8" fill="url(#consoleBadge)" opacity="0.9"/>
  <rect x="38" y="124" width="194" height="8" fill="url(#consoleBadge)" opacity="0.9"/>
  <text x="135" y="126" text-anchor="middle" fill="#fff" font-size="10" font-weight="600" letter-spacing="1">CONSOLE</text>
  <text x="135" y="148" text-anchor="middle" fill="#f9a8d4" font-size="9">Go BFF + SolidJS PWA</text>
  <text x="135" y="164" text-anchor="middle" fill="#94a3b8" font-size="8">Stream, steer, abort, permission</text>
  <text x="135" y="178" text-anchor="middle" fill="#94a3b8" font-size="8">question responses</text>

  <!-- Row 3: Chat Channels — y=310 -->
  <rect x="38" y="310" width="194" height="120" rx="8" fill="#1e1245" stroke="#7c3aed" stroke-width="0.5" opacity="0.7"/>
  <rect x="38" y="310" width="194" height="22" rx="8" fill="url(#chatBadge)" opacity="0.9"/>
  <rect x="38" y="324" width="194" height="8" fill="url(#chatBadge)" opacity="0.9"/>
  <text x="135" y="326" text-anchor="middle" fill="#fff" font-size="10" font-weight="600" letter-spacing="1">CHAT CHANNELS</text>
  <circle cx="72" cy="358" r="16" fill="#1a1040" stroke="#a78bfa" stroke-width="0.8"/>
  <text x="72" y="362" text-anchor="middle" fill="#c4b5fd" font-size="8" font-weight="500">TG</text>
  <circle cx="135" cy="358" r="16" fill="#1a1040" stroke="#a78bfa" stroke-width="0.8"/>
  <text x="135" y="362" text-anchor="middle" fill="#c4b5fd" font-size="8" font-weight="500">Slack</text>
  <circle cx="198" cy="358" r="16" fill="#1a1040" stroke="#a78bfa" stroke-width="0.8"/>
  <text x="198" y="362" text-anchor="middle" fill="#c4b5fd" font-size="8" font-weight="500">DC</text>
  <text x="135" y="396" text-anchor="middle" fill="#94a3b8" font-size="8">Forward messages to daemons</text>
  <text x="135" y="422" text-anchor="middle" fill="#64748b" font-size="7" font-style="italic">Channel CR (chat type)</text>

  <!-- Row 4: Event Channels — y=450 -->
  <rect x="38" y="450" width="194" height="130" rx="8" fill="#2a1a08" stroke="#f97316" stroke-width="0.5" opacity="0.7"/>
  <rect x="38" y="450" width="194" height="22" rx="8" fill="url(#eventBadge)" opacity="0.9"/>
  <rect x="38" y="464" width="194" height="8" fill="url(#eventBadge)" opacity="0.9"/>
  <text x="135" y="466" text-anchor="middle" fill="#fff" font-size="10" font-weight="600" letter-spacing="1">EVENT CHANNELS</text>
  <circle cx="72" cy="500" r="16" fill="#1f1508" stroke="#fb923c" stroke-width="0.8"/>
  <text x="72" y="504" text-anchor="middle" fill="#fdba74" font-size="8" font-weight="500">GL</text>
  <circle cx="135" cy="500" r="16" fill="#1f1508" stroke="#fb923c" stroke-width="0.8"/>
  <text x="135" y="504" text-anchor="middle" fill="#fdba74" font-size="8" font-weight="500">GH</text>
  <circle cx="198" cy="500" r="16" fill="#1f1508" stroke="#fb923c" stroke-width="0.8"/>
  <text x="198" y="504" text-anchor="middle" fill="#fdba74" font-size="8" font-weight="500">WH</text>
  <text x="135" y="540" text-anchor="middle" fill="#94a3b8" font-size="8">Render prompt from template</text>
  <text x="135" y="554" text-anchor="middle" fill="#94a3b8" font-size="8">Create AgentRun CRs</text>
  <text x="135" y="572" text-anchor="middle" fill="#64748b" font-size="7" font-style="italic">Channel CR (event type)</text>

  <!-- Row 5: Cron Schedule — y=600 -->
  <rect x="38" y="600" width="194" height="48" rx="8" fill="#111827" stroke="#475569" stroke-width="0.5" opacity="0.7"/>
  <text x="135" y="620" text-anchor="middle" fill="#94a3b8" font-size="9" font-weight="500">Cron Schedule</text>
  <text x="135" y="636" text-anchor="middle" fill="#64748b" font-size="8">Timed agent triggers</text>

  <!-- ==================== LANE: OPERATOR (middle) ==================== -->
  <rect x="270" y="65" width="340" height="940" rx="12" fill="url(#operatorGrad)" stroke="#3b82f6" stroke-width="0.6" opacity="0.85" filter="url(#shadow)"/>
  <text x="440" y="92" text-anchor="middle" fill="#93c5fd" font-size="13" font-weight="600" letter-spacing="1.5">OPERATOR</text>
  <text x="440" y="105" text-anchor="middle" fill="#475569" font-size="9">reconciles Custom Resources</text>

  <!-- Row 2: MCPServer CR — y=218 -->
  <rect x="310" y="218" width="170" height="55" rx="8" fill="#0a2a2a" stroke="#06b6d4" stroke-width="0.8" filter="url(#softGlow)"/>
  <rect x="310" y="218" width="170" height="20" rx="8" fill="url(#mcpBadge)" opacity="0.8"/>
  <rect x="310" y="230" width="170" height="8" fill="url(#mcpBadge)" opacity="0.8"/>
  <text x="395" y="234" text-anchor="middle" fill="#fff" font-size="9" font-weight="600">MCPServer CR</text>
  <text x="395" y="258" text-anchor="middle" fill="#67e8f9" font-size="8">deploy | external mode</text>

  <!-- Row 3: Channel Bridge (Chat) — y=330 -->
  <rect x="310" y="330" width="170" height="68" rx="8" fill="#172554" stroke="#60a5fa" stroke-width="0.8" filter="url(#softGlow)"/>
  <rect x="310" y="330" width="170" height="20" rx="8" fill="url(#chatBadge)" opacity="0.7"/>
  <rect x="310" y="342" width="170" height="8" fill="url(#chatBadge)" opacity="0.7"/>
  <text x="395" y="345" text-anchor="middle" fill="#fff" font-size="9" font-weight="600">Channel Bridge</text>
  <text x="395" y="368" text-anchor="middle" fill="#93c5fd" font-size="8">Chat type · Deployment</text>
  <text x="395" y="386" text-anchor="middle" fill="#64748b" font-size="8">HTTP POST to daemon</text>

  <!-- Row 4: Channel Bridge (Event) — y=470 -->
  <rect x="310" y="470" width="170" height="68" rx="8" fill="#172554" stroke="#60a5fa" stroke-width="0.8" filter="url(#softGlow)"/>
  <rect x="310" y="470" width="170" height="20" rx="8" fill="url(#eventBadge)" opacity="0.7"/>
  <rect x="310" y="482" width="170" height="8" fill="url(#eventBadge)" opacity="0.7"/>
  <text x="395" y="485" text-anchor="middle" fill="#fff" font-size="9" font-weight="600">Channel Bridge</text>
  <text x="395" y="508" text-anchor="middle" fill="#93c5fd" font-size="8">Event type · Deployment</text>
  <text x="395" y="526" text-anchor="middle" fill="#64748b" font-size="8">Renders prompt from template</text>

  <!-- Row 6: AgentRun CR — y=680 -->
  <rect x="330" y="680" width="150" height="62" rx="10" fill="#0c1a33" stroke="#3b82f6" stroke-width="1.2" filter="url(#glow)"/>
  <text x="405" y="702" text-anchor="middle" fill="#93c5fd" font-size="11" font-weight="700">AgentRun CR</text>
  <text x="405" y="718" text-anchor="middle" fill="#64748b" font-size="8">prompt + agentRef + source</text>
  <text x="405" y="734" text-anchor="middle" fill="#475569" font-size="7">concurrency: queue | reject | replace</text>

  <!-- Row 7: AgentRun Reconciler — y=790 -->
  <rect x="310" y="790" width="190" height="80" rx="10" fill="#172554" stroke="#3b82f6" stroke-width="1" filter="url(#softGlow)"/>
  <rect x="310" y="790" width="190" height="20" rx="10" fill="url(#operatorBadge)" opacity="0.8"/>
  <rect x="310" y="802" width="190" height="8" fill="url(#operatorBadge)" opacity="0.8"/>
  <text x="405" y="805" text-anchor="middle" fill="#fff" font-size="9" font-weight="600">AgentRun Reconciler</text>
  <text x="405" y="828" text-anchor="middle" fill="#93c5fd" font-size="8">task → create Job</text>
  <text x="405" y="844" text-anchor="middle" fill="#93c5fd" font-size="8">daemon → HTTP POST /prompt</text>
  <text x="405" y="862" text-anchor="middle" fill="#475569" font-size="7">enforces concurrency policy</text>

  <!-- ==================== LANE: KUBERNETES (right) ==================== -->
  <rect x="630" y="65" width="450" height="940" rx="12" fill="url(#k8sGrad)" stroke="#10b981" stroke-width="0.6" opacity="0.85" filter="url(#shadow)"/>
  <text x="855" y="92" text-anchor="middle" fill="#6ee7b7" font-size="13" font-weight="600" letter-spacing="1.5">KUBERNETES WORKLOADS</text>

  <!-- Row 1: K8s API — y=110, left side of K8s lane -->
  <rect x="650" y="110" width="200" height="55" rx="8" fill="#1e103d" stroke="#8b5cf6" stroke-width="0.8" filter="url(#softGlow)"/>
  <rect x="650" y="110" width="200" height="20" rx="8" fill="url(#k8sApiBadge)" opacity="0.8"/>
  <rect x="650" y="122" width="200" height="8" fill="url(#k8sApiBadge)" opacity="0.8"/>
  <text x="750" y="126" text-anchor="middle" fill="#fff" font-size="9" font-weight="600">Kubernetes API</text>
  <text x="750" y="148" text-anchor="middle" fill="#c4b5fd" font-size="8">Agent CR status, watch, list</text>
  <text x="750" y="160" text-anchor="middle" fill="#64748b" font-size="7">status.serviceURL discovery</text>

  <!-- Row 2: MCP Server — y=218, same row as MCPServer CR -->
  <rect x="650" y="218" width="250" height="68" rx="10" fill="#042f2e" stroke="#06b6d4" stroke-width="0.8" filter="url(#softGlow)"/>
  <rect x="650" y="218" width="250" height="22" rx="10" fill="url(#mcpBadge)" opacity="0.85"/>
  <rect x="650" y="232" width="250" height="8" fill="url(#mcpBadge)" opacity="0.85"/>
  <text x="775" y="234" text-anchor="middle" fill="#fff" font-size="10" font-weight="600">MCP Server</text>
  <text x="775" y="258" text-anchor="middle" fill="#67e8f9" font-size="9">Deployment + Service</text>
  <text x="775" y="274" text-anchor="middle" fill="#94a3b8" font-size="8">mcp-gateway spawn mode (stdio → SSE)</text>

  <!-- Row 3: Agent (daemon) — y=310 -->
  <rect x="650" y="310" width="250" height="200" rx="10" fill="#052e16" stroke="#10b981" stroke-width="1" filter="url(#softGlow)"/>
  <rect x="650" y="310" width="250" height="24" rx="10" fill="url(#agentBadge)" opacity="0.85"/>
  <rect x="650" y="326" width="250" height="8" fill="url(#agentBadge)" opacity="0.85"/>
  <text x="775" y="328" text-anchor="middle" fill="#fff" font-size="11" font-weight="700">Agent (daemon)</text>
  <text x="775" y="354" text-anchor="middle" fill="#6ee7b7" font-size="10">Deployment + PVC + Service</text>
  <text x="775" y="372" text-anchor="middle" fill="#86efac" font-size="9" font-weight="500">Fantasy Runtime :4096</text>
  <rect x="664" y="386" width="92" height="18" rx="4" fill="#064e3b" stroke="#34d399" stroke-width="0.5"/>
  <text x="710" y="399" text-anchor="middle" fill="#a7f3d0" font-size="7" font-weight="500">/prompt/stream</text>
  <rect x="764" y="386" width="48" height="18" rx="4" fill="#064e3b" stroke="#34d399" stroke-width="0.5"/>
  <text x="788" y="399" text-anchor="middle" fill="#a7f3d0" font-size="7" font-weight="500">/steer</text>
  <rect x="820" y="386" width="48" height="18" rx="4" fill="#064e3b" stroke="#34d399" stroke-width="0.5"/>
  <text x="844" y="399" text-anchor="middle" fill="#a7f3d0" font-size="7" font-weight="500">/abort</text>
  <rect x="664" y="410" width="75" height="18" rx="4" fill="#064e3b" stroke="#34d399" stroke-width="0.5"/>
  <text x="701" y="423" text-anchor="middle" fill="#a7f3d0" font-size="7" font-weight="500">/permission</text>
  <rect x="747" y="410" width="68" height="18" rx="4" fill="#064e3b" stroke="#34d399" stroke-width="0.5"/>
  <text x="781" y="423" text-anchor="middle" fill="#a7f3d0" font-size="7" font-weight="500">/question</text>
  <!-- MCP gw sidecar -->
  <rect x="664" y="436" width="218" height="18" rx="4" fill="#083344" stroke="#22d3ee" stroke-width="0.5"/>
  <text x="773" y="449" text-anchor="middle" fill="#67e8f9" font-size="7">mcp-gateway sidecar (proxy mode)</text>
  <!-- run_agent tool -->
  <rect x="664" y="464" width="218" height="30" rx="6" fill="#111827" stroke="#94a3b8" stroke-width="0.6"/>
  <text x="773" y="480" text-anchor="middle" fill="#e2e8f0" font-size="8" font-weight="600">run_agent tool</text>
  <text x="773" y="491" text-anchor="middle" fill="#94a3b8" font-size="7">invokes other agents → creates AgentRun CR</text>

  <!-- Row 3 right: Engram (Memory) — y=310 -->
  <rect x="920" y="310" width="145" height="168" rx="10" fill="#1c1a05" stroke="#f59e0b" stroke-width="0.8" filter="url(#softGlow)"/>
  <rect x="920" y="310" width="145" height="22" rx="10" fill="url(#memBadge)" opacity="0.85"/>
  <rect x="920" y="324" width="145" height="8" fill="url(#memBadge)" opacity="0.85"/>
  <text x="992" y="326" text-anchor="middle" fill="#fff" font-size="9" font-weight="600">Engram (Memory)</text>
  <text x="992" y="352" text-anchor="middle" fill="#fcd34d" font-size="8">PVC + Deploy + Service</text>
  <text x="992" y="368" text-anchor="middle" fill="#fbbf24" font-size="9" font-weight="500">:7437 HTTP REST</text>
  <text x="992" y="392" text-anchor="middle" fill="#94a3b8" font-size="7">Working memory</text>
  <text x="992" y="406" text-anchor="middle" fill="#94a3b8" font-size="7">Long-term knowledge</text>
  <text x="992" y="420" text-anchor="middle" fill="#94a3b8" font-size="7">Auto-summarize</text>
  <text x="992" y="444" text-anchor="middle" fill="#475569" font-size="7">EngramClient in runtime</text>
  <text x="992" y="458" text-anchor="middle" fill="#475569" font-size="7">/etc/operator/config.json</text>

  <!-- Row 7: Agent (task) — y=790 -->
  <rect x="650" y="790" width="250" height="85" rx="10" fill="#052e16" stroke="#10b981" stroke-width="1" filter="url(#softGlow)"/>
  <rect x="650" y="790" width="250" height="24" rx="10" fill="url(#agentBadge)" opacity="0.85"/>
  <rect x="650" y="806" width="250" height="8" fill="url(#agentBadge)" opacity="0.85"/>
  <text x="775" y="808" text-anchor="middle" fill="#fff" font-size="11" font-weight="700">Agent (task)</text>
  <text x="775" y="834" text-anchor="middle" fill="#6ee7b7" font-size="10">Job (one-shot)</text>
  <text x="775" y="852" text-anchor="middle" fill="#94a3b8" font-size="9">Prompt in → result out → exits</text>
  <text x="775" y="868" text-anchor="middle" fill="#475569" font-size="8">Fantasy Runtime, same image</text>

  <!-- ==================== ARROWS ==================== -->

  <!-- Console → K8s API -->
  <line x1="232" y1="140" x2="648" y2="140" stroke="#a78bfa" stroke-width="1.5" stroke-dasharray="5 3" marker-end="url(#arrowViolet)" opacity="0.8"/>
  <rect x="390" y="127" width="110" height="15" rx="3" fill="#1e103d" stroke="#8b5cf6" stroke-width="0.4"/>
  <text x="445" y="138" text-anchor="middle" fill="#c4b5fd" font-size="7" font-weight="500">K8s API (watch CRs)</text>

  <!-- Console → Agent daemon (HTTP :4096 via BFF) -->
  <path d="M232,165 L620,165 L620,370 L648,370" stroke="#f472b6" stroke-width="1.8" stroke-dasharray="6 3" marker-end="url(#arrowRose)" opacity="0.8" fill="none"/>
  <rect x="380" y="155" width="115" height="16" rx="3" fill="#2d1040" stroke="#ec4899" stroke-width="0.5"/>
  <text x="437" y="167" text-anchor="middle" fill="#f9a8d4" font-size="8" font-weight="600">HTTP :4096 (BFF)</text>

  <!-- MCPServer CR → MCP Server -->
  <line x1="480" y1="248" x2="648" y2="248" stroke="#06b6d4" stroke-width="1.5" stroke-dasharray="6 3" marker-end="url(#arrowCyanM)" opacity="0.8"/>
  <text x="563" y="242" fill="#67e8f9" font-size="7">reconciles</text>

  <!-- MCP Server ↔ Agent daemon sidecar (SSE) -->
  <path d="M775,286 L775,308" stroke="#06b6d4" stroke-width="1.2" stroke-dasharray="4 2" marker-end="url(#arrowCyanM)" opacity="0.7" fill="none"/>
  <text x="788" y="301" fill="#67e8f9" font-size="6">SSE</text>

  <!-- Chat channels → Chat Bridge -->
  <line x1="232" y1="366" x2="308" y2="366" stroke="#a855f7" stroke-width="1.5" marker-end="url(#arrowPurple)" opacity="0.9"/>

  <!-- Chat Bridge → Agent daemon (HTTP POST /prompt) -->
  <path d="M480,366 L648,395" stroke="#a855f7" stroke-width="1.5" stroke-dasharray="6 3" marker-end="url(#arrowPurple)" opacity="0.8" fill="none"/>
  <rect x="505" y="368" width="95" height="14" rx="3" fill="#1e1245" stroke="#7c3aed" stroke-width="0.4"/>
  <text x="552" y="379" text-anchor="middle" fill="#c4b5fd" font-size="7" font-weight="500">HTTP POST /prompt</text>

  <!-- Event channels → Event Bridge -->
  <line x1="232" y1="504" x2="308" y2="504" stroke="#f97316" stroke-width="1.5" marker-end="url(#arrowOrange)" opacity="0.9"/>

  <!-- Event Bridge → AgentRun CR -->
  <path d="M395,538 L395,678" stroke="#f97316" stroke-width="1.5" marker-end="url(#arrowOrange)" opacity="0.9" fill="none"/>
  <text x="408" y="614" fill="#fdba74" font-size="7">creates</text>

  <!-- Agent daemon run_agent → AgentRun CR -->
  <path d="M664,483 L560,483 L560,700 L480,700" stroke="#94a3b8" stroke-width="1.3" stroke-dasharray="5 3" marker-end="url(#arrowGray)" opacity="0.75" fill="none"/>
  <rect x="560" y="576" width="70" height="14" rx="3" fill="#111827" stroke="#475569" stroke-width="0.4"/>
  <text x="595" y="587" text-anchor="middle" fill="#94a3b8" font-size="7" font-weight="500">run_agent</text>

  <!-- Cron → AgentRun CR -->
  <path d="M232,624 L328,710" stroke="#94a3b8" stroke-width="1.2" marker-end="url(#arrowGray)" opacity="0.7"/>
  <text x="266" y="660" fill="#64748b" font-size="6">creates</text>

  <!-- AgentRun CR → Reconciler -->
  <path d="M405,742 L405,788" stroke="#3b82f6" stroke-width="1.5" marker-end="url(#arrowBlueM)" opacity="0.9" fill="none"/>

  <!-- Reconciler → Agent task (create Job) -->
  <path d="M500,830 L648,830" stroke="#10b981" stroke-width="1.5" stroke-dasharray="6 3" marker-end="url(#arrowGreenM)" opacity="0.8" fill="none"/>
  <rect x="520" y="818" width="80" height="14" rx="3" fill="#052e16" stroke="#10b981" stroke-width="0.4"/>
  <text x="560" y="829" text-anchor="middle" fill="#6ee7b7" font-size="7" font-weight="500">create Job</text>

  <!-- Reconciler → Agent daemon (HTTP POST /prompt) -->
  <path d="M500,843 L636,843 L636,420 L648,420" stroke="#10b981" stroke-width="1.5" stroke-dasharray="6 3" marker-end="url(#arrowGreenM)" opacity="0.6" fill="none"/>
  <rect x="637" y="620" width="50" height="36" rx="3" fill="#052e16" stroke="#10b981" stroke-width="0.4"/>
  <text x="662" y="633" text-anchor="middle" fill="#6ee7b7" font-size="7" font-weight="500">HTTP</text>
  <text x="662" y="644" text-anchor="middle" fill="#6ee7b7" font-size="7" font-weight="500">POST</text>
  <text x="662" y="652" text-anchor="middle" fill="#6ee7b7" font-size="6">/prompt</text>

  <!-- Agent daemon → Engram -->
  <line x1="900" y1="395" x2="918" y2="395" stroke="#f59e0b" stroke-width="1.2" stroke-dasharray="4 2" marker-end="url(#arrowAmber)" opacity="0.7"/>
  <text x="907" y="388" fill="#fbbf24" font-size="6">HTTP</text>

  <!-- Subtle branding -->
  <text x="1075" y="998" text-anchor="end" fill="#1e293b" font-size="8">agentops.io</text>
</svg>